<mxfile host="app.diagrams.net" modified="2024-03-26T14:18:01.239Z" agent="Mozilla/5.0 (Windows NT 10.0; Win64; x64) AppleWebKit/537.36 (KHTML, like Gecko) Chrome/122.0.0.0 Safari/537.36" version="24.1.0" etag="Nl0dhMUwUt7875ywHG7X" type="github">
  <diagram name="PÃ¡gina-1" id="HPERAe0QCyZbYKtI8_tb">
    <mxGraphModel>
      <root>
        <mxCell id="0" />
        <mxCell id="1" parent="0" />
      </root>
    </mxGraphModel>
  </diagram>
</mxfile>
